<svg version="1.0" xmlns="http://www.w3.org/2000/svg" width="29440.000000pt" height="16640.000000pt" viewBox="0 0 29440.000000 16640.000000" preserveAspectRatio="xMidYMid meet">
  <g transform="translate(0.000000,16640.000000) scale(2.000000,-2.000000)" fill="#153f93" stroke="none">
    <path d="M2336 14746 c-46 -8 -56 -18 -56 -64 0 -44 18 -68 80 -110 44 -28 88 -52 100 -52 22 0 26 122 8 196 -12 44 -24 46 -132 30z"/>
    <path d="M2520 14652 c0 -136 22 -146 202 -88 126 40 172 76 148 116 -18 28 -194 80 -274 80 l-76 0 0 -108z"/>
    <path d="M2048 14556 c-44 -38 -68 -76 -64 -100 6 -38 224 -176 244 -154 6 4 0 74 -12 152 -24 174 -60 196 -168 102z"/>
    <path d="M2250 14488 c24 -212 38 -226 134 -134 76 72 70 106 -30 176 -120 86 -118 86 -104 -42z"/>
    <path d="M3760 14120 l0 -464 266 8 c284 8 372 36 466 140 162 176 154 494 -16 648 -104 96 -174 116 -450 124 l-266 8 0 -464z m556 312 c128 -66 198 -212 176 -366 -28 -210 -142 -286 -428 -286 l-184 0 0 340 0 340 190 0 c126 0 210 -10 246 -28z"/>
    <path d="M4860 14120 l0 -460 328 0 c320 0 328 2 338 44 6 24 8 50 2 60 -6 8 -136 16 -290 16 l-278 0 0 150 0 150 260 0 260 0 0 50 0 50 -260 0 -260 0 0 140 0 140 270 0 270 0 0 60 0 60 -320 0 -320 0 0 -460z"/>
    <path d="M6050 14306 c-76 -150 -142 -280 -146 -290 -4 -8 18 -16 50 -16 52 0 64 18 156 198 56 110 106 200 112 200 22 4 222 -436 208 -458 -8 -12 2 -36 24 -50 20 -14 58 -72 86 -128 40 -88 54 -102 104 -102 30 0 56 4 56 10 0 16 -404 860 -424 886 -50 62 -88 -20 -226 -250z"/>
    <path d="M6928 14554 c-4 -14 -6 -208 -4 -454 l6 -430 56 -6 54 -6 0 460 0 462 -50 0 c-28 0 -56 -12 -62 -26z"/>
    <path d="M2720 14520 c-130 -42 -146 -80 -52 -124 l68 -34 56 74 c30 40 64 86 74 100 26 32 -8 28 -146 -16z"/>
    <path d="M2994 14526 c-18 -16 -18 -192 -2 -234 10 -26 26 -24 110 18 54 28 98 54 98 60 0 6 -32 46 -72 90 -70 76 -106 96 -134 66z"/>
    <path d="M2870 14466 c-96 -102 -98 -122 -26 -166 36 -22 72 -40 82 -40 8 0 14 58 14 130 0 72 -4 130 -10 130 -4 0 -32 -24 -60 -54z"/>
    <path d="M2550 14382 c-6 -10 -4 -60 2 -110 14 -102 32 -100 108 8 l38 54 -68 32 c-38 18 -74 24 -80 16z"/>
    <path d="M1926 14354 c-38 -16 -86 -104 -86 -156 0 -24 62 -22 212 6 70 12 128 32 128 46 0 12 -48 44 -104 74 -82 38 -116 46 -150 30z"/>
    <path d="M2404 14324 c-36 -30 -64 -64 -64 -78 0 -34 82 -86 134 -86 38 0 46 10 46 66 0 76 -20 154 -38 154 -6 0 -42 -28 -78 -56z"/>
    <path d="M2672 14232 c-64 -86 -68 -122 -6 -104 24 8 86 22 140 34 112 26 120 58 24 104 -94 46 -98 44 -158 -34z"/>
    <path d="M3126 14266 c-36 -18 -66 -44 -66 -60 0 -28 196 -136 216 -118 6 6 2 54 -8 106 -20 108 -46 120 -142 72z"/>
    <path d="M2010 14162 c-152 -32 -160 -36 -178 -98 -28 -100 4 -114 122 -54 108 56 242 160 226 174 -6 6 -82 -6 -170 -22z"/>
    <path d="M2150 14098 c-38 -34 -70 -74 -70 -86 0 -22 174 -132 208 -132 6 0 12 24 12 52 0 72 -42 228 -62 228 -8 0 -48 -28 -88 -62 -62z"/>
    <path d="M2314 14116 c8 -26 18 -84 26 -130 8 -48 20 -86 30 -86 8 0 40 32 68 70 62 78 54 132 -22 166 -80 38 -114 30 -102 -20z"/>
    <path d="M2830 14130 c-10 -4 -60 -18 -110 -30 l-90 -24 60 -48 c34 -26 66 -48 72 -48 6 0 40 36 76 80 56 72 54 92 -8 70z"/>
    <path d="M3040 14076 c0 -90 20 -156 46 -156 38 0 174 70 168 86 -2 10 -52 44 -110 76 l-104 62 0 -68z"/>
    <path d="M2870 14036 l-72 -86 82 -38 c108 -54 142 -24 126 114 -14 118 -40 120 -136 10z"/>
    <path d="M2466 13960 c-86 -108 -82 -120 38 -120 60 0 114 6 120 12 6 6 -2 46 -20 90 -36 92 -76 98 -138 18z"/>
    <path d="M2630 13986 c8 -20 20 -52 24 -70 14 -46 40 -46 64 2 18 30 12 44 -28 70 -62 42 -78 40 -60 -2z"/>
    <path d="M5950 13920 c34 -38 56 -40 218 -36 146 4 182 12 182 36 0 24 -40 32 -218 36 l-220 6 38 -42z"/>
    <path d="M1970 13900 c-6 -22 -6 -48 0 -60 14 -24 290 -28 290 -4 0 30 -154 104 -216 104 -44 0 -64 -12 -74 -40z"/>
    <path d="M3190 13908 c-34 -18 -74 -58 -88 -90 -30 -68 -14 -158 28 -158 28 0 108 136 138 236 16 52 4 52 -78 12z"/>
    <path d="M2746 13896 c-40 -52 24 -146 140 -206 122 -64 186 -58 162 14 -20 68 -40 88 -160 156 -124 70 -118 68 -142 36z"/>
    <path d="M5784 13790 l-64 -130 58 0 c46 0 64 16 104 90 36 68 42 98 26 124 -38 62 -58 48 -124 -84z"/>
    <path d="M2396 13776 c-30 -80 80 -136 154 -80 28 18 50 50 50 70 0 28 -18 34 -98 34 -60 0 -102 -10 -106 -24z"/>
    <path d="M1960 13744 c0 -20 26 -66 58 -104 64 -78 76 -76 184 64 l62 76 -152 0 c-132 0 -152 -4 -152 -36z"/>
    <path d="M2238 13684 c-108 -120 -122 -142 -110 -180 8 -20 34 -48 60 -60 48 -22 50 -18 82 128 18 84 30 154 26 160 -6 4 -32 -18 -58 -48z"/>
    <path d="M2314 13606 c-18 -62 -28 -118 -24 -124 6 -4 32 12 60 38 56 52 66 142 22 178 -22 18 -32 0 -58 -92z"/>
    <path d="M2584 13674 c-24 -26 -44 -56 -44 -68 0 -22 144 -146 168 -146 14 0 -6 150 -30 216 -22 56 -40 56 -94 -2z"/>
    <path d="M2720 13686 c0 -18 10 -90 22 -160 26 -148 44 -156 182 -68 120 76 110 114 -54 198 -148 74 -150 74 -150 30z"/>
    <path d="M2344 13472 l-74 -70 60 -22 c70 -28 358 -38 384 -14 8 10 -24 52 -74 96 -118 102 -192 104 -296 10z"/>
  </g>
</svg>
