 <svg  version="1.0" xmlns="http://www.w3.org/2000/svg"  width="1472.000000pt" height="832.000000pt" viewBox="0 0 1472.000000 832.000000"  preserveAspectRatio="xMidYMid meet">  <g transform="translate(0.000000,832.000000) scale(0.100000,-0.100000)" fill="#f46c6c" stroke="none"> <path d="M1168 7373 c-23 -4 -28 -9 -28 -32 0 -22 9 -34 40 -55 22 -14 44 -26 50 -26 11 0 13 61 4 98 -6 22 -12 23 -66 15z"/> <path d="M1260 7326 c0 -68 11 -73 101 -44 63 20 86 38 74 58 -9 14 -97 40 -137 40 l-38 0 0 -54z"/> <path d="M1024 7278 c-22 -19 -34 -38 -32 -50 3 -19 112 -88 122 -77 3 2 0 37 -6 76 -12 87 -30 98 -84 51z"/> <path d="M1125 7244 c12 -106 19 -113 67 -67 38 36 35 53 -15 88 -60 43 -59 43 -52 -21z"/> <path d="M1880 7060 l0 -232 133 4 c142 4 186 18 233 70 81 88 77 247 -8 324 -52 48 -87 58 -225 62 l-133 4 0 -232z m278 156 c64 -33 99 -106 88 -183 -14 -105 -71 -143 -214 -143 l-92 0 0 170 0 170 95 0 c63 0 105 -5 123 -14z"/> <path d="M2430 7060 l0 -230 164 0 c160 0 164 1 169 22 3 12 4 25 1 30 -3 4 -68 8 -145 8 l-139 0 0 75 0 75 130 0 130 0 0 25 0 25 -130 0 -130 0 0 70 0 70 135 0 135 0 0 30 0 30 -160 0 -160 0 0 -230z"/> <path d="M3025 7153 c-38 -75 -71 -140 -73 -145 -2 -4 9 -8 25 -8 26 0 32 9 78 99 28 55 53 100 56 100 11 2 111 -218 104 -229 -4 -6 1 -18 12 -25 10 -7 29 -36 43 -64 20 -44 27 -51 52 -51 15 0 28 2 28 5 0 8 -202 430 -212 443 -25 31 -44 10 -113 -125z"/> <path d="M3464 7277 c-2 -7 -3 -109 -2 -227 l3 -215 28 -3 27 -3 0 230 0 231 -25 0 c-14 0 -28 -6 -31 -13z"/> <path d="M1360 7260 c-65 -21 -73 -40 -26 -62 l34 -17 28 37 c15 20 32 43 37 50 13 16 -4 14 -73 -8z"/> <path d="M1497 7263 c-9 -8 -9 -96 -1 -117 5 -13 13 -12 55 9 27 14 49 27 49 30 0 3 -16 23 -36 45 -35 38 -53 48 -67 33z"/> <path d="M1435 7233 c-48 -51 -49 -61 -13 -83 18 -11 36 -20 41 -20 4 0 7 29 7 65 0 36 -2 65 -5 65 -2 0 -16 -12 -30 -27z"/> <path d="M1275 7191 c-3 -5 -2 -30 1 -55 7 -51 16 -50 54 4 l19 27 -34 16 c-19 9 -37 12 -40 8z"/> <path d="M963 7177 c-19 -8 -43 -52 -43 -78 0 -12 31 -11 106 3 35 6 64 16 64 23 0 6 -24 22 -52 37 -41 19 -58 23 -75 15z"/> <path d="M1202 7162 c-18 -15 -32 -32 -32 -39 0 -17 41 -43 67 -43 19 0 23 5 23 33 0 38 -10 77 -19 77 -3 0 -21 -13 -39 -28z"/> <path d="M1336 7116 c-32 -43 -34 -61 -3 -52 12 4 43 11 70 17 56 13 60 29 12 52 -47 23 -49 22 -79 -17z"/> <path d="M1563 7133 c-18 -9 -33 -22 -33 -30 0 -14 98 -68 108 -59 3 3 1 27 -4 53 -10 54 -23 60 -71 36z"/> <path d="M1005 7081 c-76 -16 -80 -18 -89 -49 -14 -50 2 -57 61 -27 54 28 121 80 113 87 -3 3 -41 -3 -85 -11z"/> <path d="M1075 7049 c-19 -17 -35 -37 -35 -43 0 -11 87 -66 104 -66 3 0 6 12 6 26 0 36 -21 114 -31 114 -4 0 -24 -14 -44 -31z"/> <path d="M1153 7058 c4 -13 9 -42 13 -65 4 -24 10 -43 15 -43 4 0 20 16 34 35 31 39 27 66 -11 83 -40 19 -57 15 -51 -10z"/> <path d="M1415 7065 c-5 -2 -30 -9 -55 -15 l-45 -12 30 -24 c17 -13 33 -24 36 -24 3 0 20 18 38 40 28 36 27 46 -4 35z"/> <path d="M1520 7038 c0 -45 10 -78 23 -78 19 0 87 35 84 43 -1 5 -26 22 -55 38 l-52 31 0 -34z"/> <path d="M1435 7018 l-36 -43 41 -19 c54 -27 71 -12 63 57 -7 59 -20 60 -68 5z"/> <path d="M1233 6980 c-43 -54 -41 -60 19 -60 30 0 57 3 60 6 3 3 -1 23 -10 45 -18 46 -38 49 -69 9z"/> <path d="M1315 6993 c4 -10 10 -26 12 -35 7 -23 20 -23 32 1 9 15 6 22 -14 35 -31 21 -39 20 -30 -1z"/> <path d="M2975 6960 c17 -19 28 -20 109 -18 73 2 91 6 91 18 0 12 -20 16 -109 18 l-110 3 19 -21z"/> <path d="M985 6950 c-3 -11 -3 -24 0 -30 7 -12 145 -14 145 -2 0 15 -77 52 -108 52 -22 0 -32 -6 -37 -20z"/> <path d="M1595 6954 c-17 -9 -37 -29 -44 -45 -15 -34 -7 -79 14 -79 14 0 54 68 69 118 8 26 2 26 -39 6z"/> <path d="M1373 6948 c-20 -26 12 -73 70 -103 61 -32 93 -29 81 7 -10 34 -20 44 -80 78 -62 35 -59 34 -71 18z"/> <path d="M2892 6895 l-32 -65 29 0 c23 0 32 8 52 45 18 34 21 49 13 62 -19 31 -29 24 -62 -42z"/> <path d="M1198 6888 c-15 -40 40 -68 77 -40 14 9 25 25 25 35 0 14 -9 17 -49 17 -30 0 -51 -5 -53 -12z"/> <path d="M980 6872 c0 -10 13 -33 29 -52 32 -39 38 -38 92 32 l31 38 -76 0 c-66 0 -76 -2 -76 -18z"/> <path d="M1119 6842 c-54 -60 -61 -71 -55 -90 4 -10 17 -24 30 -30 24 -11 25 -9 41 64 9 42 15 77 13 80 -3 2 -16 -9 -29 -24z"/> <path d="M1157 6803 c-9 -31 -14 -59 -12 -62 3 -2 16 6 30 19 28 26 33 71 11 89 -11 9 -16 0 -29 -46z"/> <path d="M1292 6837 c-12 -13 -22 -28 -22 -34 0 -11 72 -73 84 -73 7 0 -3 75 -15 108 -11 28 -20 28 -47 -1z"/> <path d="M1360 6843 c0 -9 5 -45 11 -80 13 -74 22 -78 91 -34 60 38 55 57 -27 99 -74 37 -75 37 -75 15z"/> <path d="M1172 6736 l-37 -35 30 -11 c35 -14 179 -19 192 -7 4 5 -12 26 -37 48 -59 51 -96 52 -148 5z"/> </g> </svg> 